<svg xmlns="http://www.w3.org/2000/svg">
	<g transform="matrix(0.02739726,0,0,0.02739726,-0.4,-3.0821916)" viewBox="0 0 16 16">
	  <path d="m 14.6,647.5 c 0,-161.8 0,-323.6 0,-485.3 0.2,-0.9 0.4,-1.8 0.6,-2.8 3.4,-17.5 12.7,-30.8 28.1,-39.8 6.5,-3.8 13.6,-5.6 20.9,-7.1 161.6,0 323.2,0 484.8,0 0.7,0.2 1.5,0.4 2.2,0.5 17.9,3.3 31.4,12.7 40.5,28.4 3.7,6.4 5.5,13.5 6.9,20.7 0,161.8 0,323.6 0,485.3 -0.3,1.2 -0.6,2.4 -0.8,3.6 -3.4,16.3 -12.3,28.8 -26.4,37.6 -6.7,4.2 -14.2,6.4 -21.8,7.9 -162,0 -323.9,0 -485.9,0 -1.2,-0.3 -2.4,-0.6 -3.6,-0.8 -16.2,-3.4 -28.6,-12.2 -37.4,-26.1 -4.4,-6.8 -6.6,-14.3 -8.1,-22.1 z M 124.1,493.7 c 0,0 0,0 0,0 0.1,16.1 0.1,32.1 0.1,48.2 0,3.6 0.4,7.2 1.2,10.7 2.3,9.7 10.3,16.2 20.4,16.3 13.4,0.1 26.8,0.1 40.2,0 5.2,0 10.2,-1.4 14.4,-4.5 1.9,-1.4 3.6,-1.5 5.5,-0.1 5,3.9 10.7,5.3 16.9,5 12.3,-0.6 24.5,-0.3 36.8,-0.5 4.6,-0.1 8.8,-1.6 12.4,-4.4 2.3,-1.8 4.1,-1.8 6.3,0.1 2.8,2.4 6.1,4 9.8,4.3 14.8,1.1 29.6,0.5 44.4,0.3 0.8,0 1.7,-0.2 2.5,-0.4 7.2,-2 13.7,-4.9 16.4,-12.6 1.5,-4.3 3,-4.8 6.5,-2 5.8,4.7 12,8.6 18.9,11.7 22.5,10 45.7,10.6 69.1,4.1 24.1,-6.7 39.6,-22.4 46.5,-46.5 3.3,-11.6 4.1,-23.4 2.8,-35.3 -1.1,-10.6 -3.6,-21 -8.7,-30.5 -9.7,-18.1 -24.6,-29.8 -43.8,-36.5 -4.3,-1.5 -4.6,-2.6 -1.7,-5.9 6,-6.8 7.4,-14.6 4.8,-23.2 -1.5,-4.9 -3.9,-9.3 -7.2,-13.2 -3,-3.6 -3,-4.1 0.8,-6.9 12.1,-8.9 24.3,-17.6 36.3,-26.6 10.6,-7.9 21.6,-15.2 31.2,-24.4 9.7,-9.3 12.9,-20.7 10.9,-33.6 -2.7,-17.7 -13,-29.8 -29.7,-35.4 -19.4,-6.5 -38,-4.2 -55.1,7.8 -17.4,12.1 -34.8,24.2 -51.8,36.9 -7.6,5.6 -16,10.4 -21.1,18.9 -0.3,0.5 -0.8,0.8 -1.4,0.8 -0.8,-0.1 -1.1,-0.7 -1.2,-1.4 -0.1,-1 -0.1,-2.1 -0.1,-3.1 0,-13.3 -0.2,-26.6 0,-39.9 0.2,-13.4 -5.6,-23.6 -15.7,-31.7 -12.1,-9.6 -26,-12.4 -41.1,-11 -9.8,0.9 -19.1,3.7 -27.2,9.4 -12.1,8.6 -19.3,19.8 -18.8,35.3 0.4,12.2 0.1,24.5 0.1,36.8 0,1.5 0.1,3.1 -0.6,4.5 -0.6,1.4 -1.6,1.8 -2.6,0.4 -3.5,-5 -8.2,-8.7 -12.8,-12.5 -20.4,-17 -42.6,-31.6 -64.5,-46.6 -11.2,-7.6 -23.4,-11.3 -37.2,-10 -20.6,1.9 -35.8,11.5 -43.7,30.7 -5.7,13.7 -4.2,27.2 5.8,39 4.9,5.8 10.9,10.3 17,14.7 16.9,12.4 34,24.7 51,37 3.1,2.2 3.1,3.1 0.5,5.9 -3.2,3.4 -6,7.2 -8.3,11.2 -6,10.1 -5,20.9 2.6,29.8 0.7,0.9 1.7,1.7 1.2,3 -0.6,1.3 -1.9,1.1 -3,1.1 -4.8,0 -9.5,-0.1 -14.3,0 -11.7,0.2 -18.8,6.4 -20.9,17.8 -0.5,2.7 -0.8,5.4 -0.8,8.2 0,16.3 0,32.5 0,48.8 z"/>
	  <path d="m 145.6,495.3 c 0,-16.1 0,-32.1 0,-48.2 0,-4.3 0.2,-4.5 4.6,-4.5 10.3,0 20.5,0 30.8,0 3.5,0 3.8,0.3 3.8,3.7 0,2.2 0,4.4 0,6.6 0,1.6 0.5,1.9 1.8,0.9 1.6,-1.3 3.2,-2.7 4.9,-4 16.1,-11.8 41.5,-11.7 56.4,0.1 2.7,2.1 4.9,4.7 7,7.5 1.9,2.6 2,2.6 4,-0.1 12.9,-16.7 37.8,-21.5 56,-10.9 10.1,5.9 14.8,15 15.3,26.4 1.2,23.6 0.3,47.3 0.5,71 0,3.3 -0.7,4 -4.1,4 -10.5,0 -21.1,0 -31.6,0 -3.1,0 -3.8,-0.7 -3.8,-4.3 0,-16.2 0,-32.3 0,-48.5 0,-3.8 0,-7.6 -0.7,-11.4 -1.4,-7.6 -5.7,-12.1 -12.9,-13.2 -6.5,-1 -13.9,2.8 -16.9,8.7 -2.1,4.1 -2.9,8.5 -2.9,13 -0.1,16.7 -0.1,33.5 -0.1,50.2 0,5.2 -0.3,5.4 -5.5,5.4 -9.8,0 -19.6,0 -29.4,0 -4.1,0 -4.6,-0.5 -4.6,-4.6 0,-18.6 0,-37.3 -0.1,-55.9 0,-9.3 -5.7,-16 -13.9,-16.5 -10.8,-0.6 -17.8,5 -18.9,15 -0.5,4.1 -0.6,8.1 -0.6,12.2 0,15 0,30 0,45 0,4.3 -0.4,4.7 -4.8,4.7 -10,0 -20,0 -29.9,0 -4.1,0 -4.4,-0.3 -4.4,-4.4 0,-15.8 0,-31.9 0,-47.9 z"/>
	  <path d="m 432,502.3 c -12.1,0 -24.1,0 -36.2,0 -3.7,0 -3.9,0.2 -3.5,3.9 0.9,10.7 7,17.1 17.8,18.5 8.7,1.2 16.2,-0.6 21.9,-7.7 1.4,-1.8 3.4,-1.9 5.4,-1.9 7.9,0 15.8,0 23.6,0.4 2.2,0.1 4.4,-0.1 6.5,-0.1 2.6,0 3,1.2 2.2,3.5 -4.4,12.2 -12.3,21.3 -24.1,26.8 -11.6,5.4 -23.9,6.6 -36.5,6 -11.4,-0.6 -22.2,-3.3 -32,-9.2 -15.5,-9.3 -22.9,-23.4 -24.7,-41 -1.5,-15.1 2,-28.7 11,-40.8 8.1,-10.9 19.4,-16.8 32.5,-19.4 15.4,-3 30.5,-2.4 45,3.7 17.2,7.2 25.9,21.2 29.9,38.8 1.1,4.9 1.2,10 1.2,15 0,2.7 -1,3.6 -3.7,3.6 -12,-0.1 -24.1,-0.1 -36.3,-0.1 z m -17.6,-21.4 c 0,-0.1 0,-0.1 0,0 6,0 12,0 17.9,-0.1 2.9,0 3.2,-0.5 2.4,-3.2 -2.6,-8.5 -8.8,-13.1 -18.7,-14 -9.9,-0.9 -18.5,4.2 -21.8,13 -1.3,3.5 -0.9,4.2 2.8,4.2 5.8,0.1 11.6,0.1 17.4,0.1 z"/>
	  <path d="m 304.1,399 c -38,0 -76,0 -114,0 -2.7,0 -5.5,0.2 -8.2,0.3 -1,0 -2.3,0.4 -2.8,-0.7 -0.4,-0.9 0.6,-1.7 1.2,-2.4 8.8,-10.9 19.6,-19.3 31.9,-25.9 17.5,-9.4 36.3,-14.5 55.8,-17.2 14.3,-2 28.8,-2.7 43.2,-2.2 26.4,1 52.2,5 76.3,16.6 14.1,6.8 26.6,15.9 36.7,27.9 0.7,0.9 2.3,1.7 1.6,3 -0.6,1 -2.1,0.5 -3.2,0.5 -39.6,0.1 -79.1,0.1 -118.5,0.1 0,0 0,0 0,0 z"/>
	  <path d="m 407.2,360.2 c -10.8,-0.4 -20.3,-3.7 -27.2,-12.6 -5.7,-7.3 -5.2,-14.2 0.9,-21.1 3.6,-4.1 8.3,-7 12.7,-10.1 18.4,-13.4 37,-26.3 55,-40.1 10.1,-7.8 31.8,-5.2 39.7,1.6 7.2,6.2 9.4,17 4.9,25.4 -0.9,1.6 -2,3 -3.5,4.1 -21.5,16.1 -43.2,32.1 -65.1,47.5 -5.3,3.7 -11,5.6 -17.4,5.3 z"/>
	  <path d="m 203,358.5 c -6.4,0.3 -12.3,-1.6 -17.7,-5.5 -21.6,-15.3 -42.7,-31.3 -64.3,-46.7 -10.3,-7.3 -11.2,-25.3 1.8,-32.7 12.4,-7.1 25.3,-6.4 36.9,1.7 21.4,15 42.4,30.5 63.5,45.9 13.4,9.8 11.2,27 -4.1,34.1 -5.1,2.3 -10.4,3.4 -16.1,3.2 z"/>
	  <path d="m 336.3,295.7 c 0,5.7 -0.2,11.4 0.1,17.1 0.5,10.8 -4.8,17.7 -14.2,21.8 -10.5,4.6 -21.4,4.6 -31.8,-0.3 -8.5,-4 -13.3,-10.6 -13,-20.5 0.3,-12 0.4,-23.9 0.1,-35.9 -0.5,-18.8 12.4,-26.1 25.6,-27.2 8.9,-0.7 17.5,1 24.8,6.6 6.2,4.7 8.4,11.3 8.5,18.8 -0.1,6.4 -0.1,13 -0.1,19.6 z"/>
	</g>
</svg>