<?xml version="1.0" encoding="UTF-8" standalone="no"?>
<!-- Created with Inkscape (http://www.inkscape.org/) -->

<svg viewBox="0 0 16 16">
  <g transform="matrix(0.04185453,0,0,0.05310513,-3.5098889,-12.965684)">
    <path d="m 116.2,488.9 c 0,-16.1 0,-32.1 0,-48.2 0,-4.3 0.2,-4.5 4.6,-4.5 10.3,0 20.5,0 30.8,0 3.5,0 3.8,0.3 3.8,3.7 0,2.2 0,4.4 0,6.6 0,1.6 0.5,1.9 1.8,0.9 1.6,-1.3 3.2,-2.7 4.9,-4 16.1,-11.8 41.5,-11.7 56.4,0.1 2.7,2.1 4.9,4.7 7,7.5 1.9,2.6 2,2.6 4,-0.1 12.9,-16.7 37.8,-21.5 56,-10.9 10.1,5.9 14.8,15 15.3,26.4 1.2,23.6 0.3,47.3 0.5,71 0,3.3 -0.7,4 -4.1,4 -10.5,0 -21.1,0 -31.6,0 -3.1,0 -3.8,-0.7 -3.8,-4.3 0,-16.2 0,-32.3 0,-48.5 0,-3.8 0,-7.6 -0.7,-11.4 -1.4,-7.6 -5.7,-12.1 -12.9,-13.2 -6.5,-1 -13.9,2.8 -16.9,8.7 -2.1,4.1 -2.9,8.5 -2.9,13 -0.1,16.7 -0.1,33.5 -0.1,50.2 0,5.2 -0.3,5.4 -5.5,5.4 -9.8,0 -19.6,0 -29.4,0 -4.1,0 -4.6,-0.5 -4.6,-4.6 0,-18.6 0,-37.3 -0.1,-55.9 0,-9.3 -5.7,-16 -13.9,-16.5 -10.8,-0.6 -17.8,5 -18.9,15 -0.5,4.1 -0.6,8.1 -0.6,12.2 0,15 0,30 0,45 0,4.3 -0.4,4.7 -4.8,4.7 -10,0 -20,0 -29.9,0 -4.1,0 -4.4,-0.3 -4.4,-4.4 0,-15.8 0,-31.8 0,-47.9 z" />
    <path d="m 402.7,495.9 c -12.1,0 -24.1,0 -36.2,0 -3.7,0 -3.9,0.2 -3.5,3.9 0.9,10.7 7,17.1 17.8,18.5 8.7,1.2 16.2,-0.6 21.9,-7.7 1.4,-1.8 3.4,-1.9 5.4,-1.9 7.9,0 15.8,0 23.6,0.4 2.2,0.1 4.4,-0.1 6.5,-0.1 2.6,0 3,1.2 2.2,3.5 -4.4,12.2 -12.3,21.3 -24.1,26.8 -11.6,5.4 -23.9,6.6 -36.5,6 -11.4,-0.6 -22.2,-3.3 -32,-9.2 -15.5,-9.3 -22.9,-23.4 -24.7,-41 -1.5,-15.1 2,-28.7 11,-40.8 8.1,-10.9 19.4,-16.8 32.5,-19.4 15.4,-3 30.5,-2.4 45,3.7 17.2,7.2 25.9,21.2 29.9,38.8 1.1,4.9 1.2,10 1.2,15 0,2.7 -1,3.6 -3.7,3.6 -12,-0.1 -24.2,-0.1 -36.3,-0.1 z M 385,474.5 c 0,0 0,0 0,0 6,0 12,0 17.9,-0.1 2.9,0 3.2,-0.5 2.4,-3.2 -2.6,-8.5 -8.8,-13.1 -18.7,-14 -9.9,-0.9 -18.5,4.2 -21.8,13 -1.3,3.5 -0.9,4.2 2.8,4.2 5.8,0.1 11.6,0.1 17.4,0.1 z" />
    <path d="m 274.7,392.6 c -38,0 -76,0 -114,0 -2.7,0 -5.5,0.2 -8.2,0.3 -1,0 -2.3,0.4 -2.8,-0.7 -0.4,-0.9 0.6,-1.7 1.2,-2.4 8.8,-10.9 19.6,-19.3 31.9,-25.9 17.5,-9.4 36.3,-14.5 55.8,-17.2 14.3,-2 28.8,-2.7 43.2,-2.2 26.4,1 52.2,5 76.3,16.6 14.1,6.8 26.6,15.9 36.7,27.9 0.7,0.9 2.3,1.7 1.6,3 -0.6,1 -2.1,0.5 -3.2,0.5 -39.6,0.1 -79,0.1 -118.5,0.1 0,0 0,0 0,0 z" />
    <path d="m 377.8,353.9 c -10.8,-0.4 -20.3,-3.7 -27.2,-12.6 -5.7,-7.3 -5.2,-14.2 0.9,-21.1 3.6,-4.1 8.3,-7 12.7,-10.1 18.4,-13.4 37,-26.3 55,-40.1 10.1,-7.8 31.8,-5.2 39.7,1.6 7.2,6.2 9.4,17 4.9,25.4 -0.9,1.6 -2,3 -3.5,4.1 -21.5,16.1 -43.2,32.1 -65.1,47.5 -5.2,3.6 -10.9,5.6 -17.4,5.3 z" />
    <path d="m 173.7,352.1 c -6.4,0.3 -12.3,-1.6 -17.7,-5.5 -21.6,-15.3 -42.7,-31.3 -64.3,-46.7 -10.3,-7.3 -11.2,-25.3 1.8,-32.7 12.4,-7.1 25.3,-6.4 36.9,1.7 21.4,15 42.4,30.5 63.5,45.9 13.4,9.8 11.2,27 -4.1,34.1 -5.2,2.4 -10.5,3.4 -16.1,3.2 z" />
    <path d="m 306.9,289.3 c 0,5.7 -0.2,11.4 0.1,17.1 0.5,10.8 -4.8,17.7 -14.2,21.8 -10.5,4.6 -21.4,4.6 -31.8,-0.3 -8.5,-4 -13.3,-10.6 -13,-20.5 0.3,-12 0.4,-23.9 0.1,-35.9 -0.5,-18.8 12.4,-26.1 25.6,-27.2 8.9,-0.7 17.5,1 24.8,6.6 6.2,4.7 8.4,11.3 8.5,18.8 0,6.5 -0.1,13 -0.1,19.6 z" />
  </g>
</svg>