<?xml version="1.0" encoding="UTF-8" standalone="no"?>
<!-- Created with Inkscape (http://www.inkscape.org/) -->

<svg
   xmlns:dc="http://purl.org/dc/elements/1.1/"
   xmlns:cc="http://creativecommons.org/ns#"
   xmlns:rdf="http://www.w3.org/1999/02/22-rdf-syntax-ns#"
   xmlns:svg="http://www.w3.org/2000/svg"
   xmlns="http://www.w3.org/2000/svg"
   version="1.1"
   width="118.12"
   height="118.12"
   id="svg5396">
  <defs
     id="defs5398" />
  <metadata
     id="metadata5401">
    <rdf:RDF>
      <cc:Work
         rdf:about="">
        <dc:format>image/svg+xml</dc:format>
        <dc:type
           rdf:resource="http://purl.org/dc/dcmitype/StillImage" />
        <dc:title></dc:title>
      </cc:Work>
    </rdf:RDF>
  </metadata>
  <g
     transform="translate(0,-934.24219)"
     id="layer1">
    <path
       d="m 115.8033,993.16015 c -1.1,23.60005 -10.9,41.50005 -31.499995,53.00005 -7.4,4.1 -15.4,6.2 -23.9,6.2 -11.899999,0.1 -22.799999,-3.5 -32.599999,-10.4 -5.3,-3.8 -9.8,-8.4 -14.1,-13.3 -1.4,-1.6 -2.2,-3.6 -3.1,-5.5 -1.6,-3.2 -3.4,-6.4 -4.6000002,-9.7 -1.1,-2.9 -1.5,-6 -2.2,-9 -0.9,-3.5 -0.8,-7.10005 -0.8,-10.70005 0,-7.4 1.2,-14.5 3.9,-21.3 7.7000002,-18.8 20.7000002,-32 40.9000002,-36.7 18.799999,-4.4 35.099999,1 49.099998,13.9 9.899996,9.1 15.699996,20.6 17.799996,34 0.5,3.3 0.8,6.6 1.1,9.5 z m -45.699995,-51.3 c 0.1,0.1 0.2,0.3 0.3,0.4 0.1,0 0.1,-0.1 0.2,-0.1 -0.3,-0.1 -0.4,-0.2 -0.5,-0.3 -0.2,0 -0.3,-0.1 -0.5,-0.1 0.2,0 0.3,0.1 0.5,0.1 z m -28.399999,1.5 c -0.7,-0.2 -1.1,0 -1.1,0.9 0.4,-0.3 0.8,-0.6 1.1,-0.9 0.1,-0.1 0.2,-0.1 0.3,-0.2 -0.1,0 -0.2,-0.1 -0.3,-0.1 0.1,0.1 0.1,0.2 0,0.3 z m -1.2,100.10005 c 0.2,0 0.5,0 0.7,0 -0.1,-0.1 -0.3,-0.3 -0.4,-0.4 -1,-1 -2.1,-2 -2.9,-3.1 -1.4,-1.8 -3.2,-2.1 -5.7,-2.1 2.8,2.4 5.4,4.2 8.3,5.6 z m -30.1,-24.8 c 0.1,0 0.1,0 0.2,0.1 -0.1,-0.1 -0.1,-0.2 -0.2,-0.1 0.1,-0.1 0,-0.1 0,0 0,-0.1 0,0 0.2,0.1 1.4,4 3.6,7.4 6.7,10.3 0.4,0.4 1.1,0.4 1.7,0.7 1.3,1.3 2.4,2.9 4.6,2.9 -1.8,-2.8 -3.8,-5.3 -5.2,-8.1 -1.2,-2.4 -2.9,-3.9 -5.3,-4.7 -1,-0.5 -1.8,-0.8 -2.7,-1.2 z m 60.399999,27.7 c 5.3,-1.9 12.8,-6.6 14.2,-8.9 -2.1,0.3 -4.1,0.6 -6.1,1 -0.8,0.2 -1.7,0.6 -2.3,1.1 -2.1,2 -4.1,4.2 -6.2,6.3 -0.1,0.1 -0.3,0.3 -0.4,0.4 0.3,0.1 0.5,0.1 0.8,0.1 z m -62.999999,-41.9 c -0.8,-0.4 -1.6000002,-0.8 -2.5000002,-1.3 0.3,3.5 1.4,6.4 2.8000002,9.3 0.5,1.1 0.9,2.3 2.3,2.5 0.8,2 2.7,2.4 4.7,3.4 -0.7,-2.4 -1.6,-4.4 -1.9,-6.5 -0.5,-3.6 -2,-6.1 -5.4,-7.4 z M 6.7033058,989.86015 c -0.5,-0.3 -1,-0.6 -1.9,-1.1 0,3.4 -0.1,6.4 0,9.4 0,1.1 0.8,1.7 1.9,1.8 0.9000002,2.00005 2.5000002,3.20005 4.8000002,3.70005 -0.1,-2.4 -0.3,-4.80005 -0.4,-7.20005 -0.1,-4.5 -0.1,-4.5 -4.2000002,-6.6 -0.1,0 -0.1,0 -0.2,0 z M 106.6033,1019.1602 c -1.9,0.8 -3.9,1.6 -5.8,2.4 -0.3,0.1 -0.4,0.5 -0.6,0.7 -2.1,3.4 -4.199996,6.7 -6.499996,10.4 2.3,-0.8 4.499996,-1.2 5.899996,-2.8 2.9,-3.1 5.4,-6.6 7,-10.7 0,-0.1 0.1,-0.1 0.1,-0.2 0,0 0,-0.1 -0.1,-0.1 0,0.2 0,0.3 0,0.3 z m 4.7,-15.4 c -1.6,0.9 -3.3,1.7 -4.8,2.6 -0.6,0.3 -1.2,0.9 -1.4,1.4 -1,3.4 -1.9,6.9 -2.9,10.7 1.9,-1.1 3.5,-2 5,-3 0.8,-0.6 1.4,-1.4 2.1,-2.1 1,0.2 1.4,-0.2 1.7,-1.2 0.5,-2.1 1.2,-4.1 1.7,-6.1 0.2,-0.9 0.3,-1.9 0.6,-3.4 -0.9,0.5 -1.5,0.8 -2,1.1 z M 6.7033058,986.06015 c 0.5000002,2.2 2.6000002,2.4 4.1000002,3.6 0.8,-4.5 1.5,-8.8 2.2,-13 0.4,-2.3 -0.5,-3.6 -2.9,-4.4 -0.2,-0.5 -0.4,-0.9 -0.7,-1.7 -2,4.6 -3.0000002,9 -4.1000002,13.4 -0.2,1.3 0.2,2 1.4,2.1 z m 84.6999982,22.80005 c 4.2,-0.7 8.199996,-1.9 12.099996,-3.6 0.5,-4 1,-7.90005 0.7,-12.00005 -2.5,0.7 -4.8,1.3 -7.1,1.9 -0.199996,3.5 -1.899996,6.20005 -3.499996,9.00005 -0.8,1.5 -1.6,2.9 -2.5,4.3 -0.1,0.1 -0.2,0.2 -0.2,0.3 0.1,0.1 0.3,0.1 0.5,0.1 z m -11.799999,27.1 c 3,-0.5 5.9,-1 8.899999,-1.5 0.5,-0.1 1,-0.5 1.3,-1 2,-2.5 4,-5 5.9,-7.5 0.6,-0.9 1.1,-1.9 1.999996,-3.3 -1.399996,0.2 -2.099996,0.3 -2.899996,0.5 -1.9,0.4 -3.7,1.1 -5.6,1.2 -3.299999,0.3 -5.499999,1.8 -6.499999,5.2 -0.7,2.3 -2,4.3 -3.1,6.4 -0.1,0 -0.1,0 -0.2,0 0.1,0.1 0.1,0.1 0.2,0.2 0,0 0,-0.1 0,-0.2 z m -8.5,-18.9 c 0,-2.1 -0.2,-3.8 0,-5.4 1.3,-11.6 2.6,-23.20005 4,-34.80005 0.4,-3.5 0.8,-7 1.1,-10.5 0.2,-1.9 0.3,-3.8 -0.3,-5.6 -3,-0.1 -3.1,-0.1 -3.5,2.6 -0.7,4.3 -1.2,8.7 -1.8,13.1 -0.7,5.6 -1.3,11.3 -2.1,16.9 -0.6,4.2 -0.7,4.2 -5.2,5 0.1,-1.6 0,-3.2 0.2,-4.8 1.3,-11.3 2.8,-22.7 4,-34 0.3,-2.6 0,-5.2 0,-8 -1.1,0.2 -2,0.3 -2.9,0.4 -0.5,2.8 -1,5.3 -1.3,7.8 -1.3,10.2 -2.6,20.5 -3.9,30.7 -0.199999,1.7 -0.499999,3.5 -1.099999,5.1 -0.9,2.6 -3.2,3.5 -5.8,2.7 -2.5,-0.8 -3.7,-2.6 -4.1,-5.1 -1.1,-8.1 -2.2,-16.1 -3.4,-24.2 -0.4,-3.1 -1,-6.3 -1.5,-9.5 -1.1,-0.1 -1.9,-0.1 -2.9,-0.1 0,0.7 -0.1,1.1 -0.1,1.6 0.4,5 0.8,10 1.4,15 0.6,5.5 1.4,10.9 2,16.4 0.2,1.5 0.1,3 -0.3,4.5 -0.7,-0.2 -1.3,-0.5 -1.8,-0.6 -1.8,-0.4 -2.6,-1.4 -2.8,-3.3 -0.3,-3.2 -0.8,-6.3 -1.2,-9.5 -0.6,-3.7 -1.1,-7.4 -1.8,-11.1 -0.3,-1.6 -0.6,-1.7 -2.1,-1.4 -0.4,0.1 -0.9,0.3 -1.4,0.5 0.3,3.1 0.4,6.1 0.8,9.2 1.1,9.6 2.2,19.2 3.3,28.80005 0.4,3.3 0.8,6.5 2.3,9.5 3.6,7.4 9.2,12.4 17.6,13.1 8.399999,0.7 15.099999,-2.7 19.599999,-10 3.7,-6 7.6,-11.9 11.3,-17.8 1.299999,-2 2.499999,-4.1 3.699999,-6.20005 0.7,-1.3 0.4,-2.5 -0.7,-3.1 -1,-0.6 -1.9,-0.5 -2.899999,0.8 -1.6,2.1 -3.2,4.2 -4.7,6.40005 -1.8,2.6 -3.5,5.4 -5.3,8 -1.6,2.4 -3.6,4.8 -6.4,6.9 z m 18.699999,-36.40005 c 0,2.9 0,5.6 0,8.5 3,0.3 5.1,1.9 6.7,4.2 2.599996,-0.7 5.099996,-1.5 7.799996,-2.3 -0.6,-5 -0.8,-9.9 -2.2,-14.7 -4.2,1.5 -8.299996,2.9 -12.299996,4.3 z m 11.599996,-6.6 c -1.6,-4.8 -3.6,-9.1 -6.399996,-12.9 -3.2,1.1 -6.1,2.2 -8.999999,3.2 1.2,4.8 2.299999,9.4 3.399999,14 4.1,-1.1 8.099996,-2.3 11.999996,-4.3 z m -15.599995,48.80005 c 0.3,0.1 0.5,0.3 0.6,0.2 3.899999,-1 7.899999,-1.9 11.799995,-3 0.6,-0.2 1.3,-1 1.5,-1.7 0.9,-2.4 1.7,-4.8 2.5,-7.2 0.3,-0.9 0.4,-2 0.7,-3 -4.6,1.2 -8.899996,2.2 -13.199996,3.4 -0.6,0.2 -1.2,0.9 -1.3,1.4 -0.999999,3.3 -1.799999,6.6 -2.599999,9.9 z M 15.303306,975.86015 c -1.3,5 -1.7,9.8 -2.2,14.8 3.1,1.2 6.1,2.3 9.3,3 0.3,-4.9 0.7,-9.5 1,-14.1 -2.7,-1.2 -5.3,-2.4 -8.1,-3.7 z m -2.5,17.1 c 0.4,4.2 0.7,7.80005 1.1,11.40005 0.1,0.5 0.6,1.2 1.1,1.4 2.7,1 5.5,1.9 8.5,2.9 -0.3,-4.4 -0.6,-8.5 -0.9,-12.70005 -3.2,-1 -6.2,-1.9 -9.8,-3 z m 33.7,-37.9 c 1.3,1.2 2.3,2.6 2.5,4.5 0.2,1.8 0.5,3.5 0.8,5.4 2.2,0 4.2,0 6.3,0 0,-5 0,-9.9 0,-14.9 -1.3,-0.1 -2.5,-0.3 -3.6,-0.4 -1.3,-0.1 -2.5,-0.1 -3.8,-0.2 -0.8,1.9 -1.4,3.7 -2.2,5.6 z m 47.299998,4.4 c -4.6,-5.9 -9.699999,-10.2 -15.699999,-13.7 -0.8,0.4 -1.6,0.8 -2.4,1.1 1.8,2.5 3.6,4.8 5.1,7.3 1.5,2.5 2.8,5.2 4.3,8 2.8,-0.8 5.599999,-1.7 8.699999,-2.7 z m -77.899998,14.4 c 2.7,1.2 5.2,2.4 7.8,3.6 1.3,-4.9 2.5,-9.5 3.8,-14.1 -2,-1 -3.8,-1.8 -5.6,-2.7 -2.7,4.1 -4.6,8.3 -6,13.2 z m 61.899999,22 c 2.9,0.2 2.9,0.2 4.4,-1.9 1.5,-2.1 2.8,-4.3 5.6,-4.9 -0.1,-2.7 -0.2,-5.3 -0.4,-8 -2.8,0.4 -5.3,0.8 -7.9,1.2 -0.5,4.6 -1.1,9.1 -1.7,13.6 z m -63.599999,12.10005 c 1.3,3.8 2.4,7.2 3.5,10.6 0.2,0.6 0.6,1.2 1.1,1.4 2.6,1 5.1,1.9 7.9,2.3 -1,-3.7 -1.9,-7.1 -2.8,-10.6 -0.1,-0.4 -0.6,-1 -1,-1.1 -2.6,-0.8 -5.4,-1.6 -8.7,-2.6 z M 106.6033,990.26015 c 1.6,-0.8 3,-1.6 4.4,-2.3 1.1,-0.6 1.4,-1.4 1.1,-2.6 -0.5,-2.3 -0.8,-4.5 -1.4,-6.8 -0.6,-2.2 -1.4,-4.3 -2.1,-6.7 -1.8,1.3 -3.2,2.4 -4.4,3.3 0.9,5.1 1.6,9.9 2.4,15.1 z m -60.699994,47.20005 c -0.3,-2.7 -1.3,-4.5 -3.4,-5.9 -1.6,-1.1 -2.9,-2.7 -4.3,-4.1 -0.5,-0.5 -1.1,-1.1 -1.7,-1.2 -1.8,-0.3 -3.7,-0.5 -5.8,-0.7 1.7,3.8 3.7,7.1 6.1,10 0.3,0.4 0.8,0.8 1.3,0.9 2.5,0.4 5.1,0.6 7.8,1 z m 0.5,-88.40005 c -0.2,-0.1 -0.2,-0.2 -0.3,-0.2 -6.3,-2.1 -4.4,-2.8 -8.8,2.2 -2.8,3.2 -4.9,7 -6.7,11.2 1.6,0.4 2.9,0.7 4.5,1 0.1,-1.2 0.2,-2.1 0.3,-3.1 0.3,-4.1 2.7,-6.4 6.8,-6.3 0.8,0 1.6,0.1 2.5,0.1 0.5,-1.7 1.1,-3.3 1.7,-4.9 z m 5.6,32.5 c 1.3,0 2.4,0 3.5,0 0.7,-4.9 1.4,-9.6 0.8,-14.5 -2.1,0 -4.1,0 -6.2,0 0.6,4.8 1.2,9.5 1.9,14.5 z m 28.199999,-37 c 6,3.8 11.099999,8.3 15.399999,13.9 1.3,-0.9 2.299996,-1.6 3.499996,-2.5 -4.799996,-5.7 -10.399996,-9.9 -16.899995,-13.2 -0.6,0.6 -1.2,1.1 -2,1.8 z m -51.899999,16.9 c 1.8,-3 3.2,-5.8 4.9,-8.4 1.7,-2.6 3.8,-4.9 5.7,-7.3 -0.9,-1.2 -1.6,-0.3 -2.2,0.1 -4.7,3.1 -8.9,6.8 -12.3,11.3 -0.4,0.5 -0.7,1 -1.2,1.8 1.7,0.9 3.4,1.7 5.1,2.5 z m 55.399999,3.4 c -0.8,0.1 -1.5,0.2 -2.2,0.3 -0.5,5 -1,9.8 -1.5,15 2.6,-0.4 4.8,-0.8 7.1,-1.2 -0.6,-5 -1.8,-9.5 -3.4,-14.1 z m -59.099999,31.6 c 0.3,3.90005 0.6,7.60005 0.9,11.20005 0.1,0.8 0.3,1.4 1.2,1.6 1.5,0.3 3.1,0.5 4.9,0.9 -0.5,-4.5 -1,-8.6 -1.5,-12.90005 -1.9,-0.3 -3.6,-0.5 -5.5,-0.8 z m 9.1,39.10005 c -1.9,-3.5 -3.7,-6.9 -5.5,-10.2 -0.1,-0.3 -0.4,-0.5 -0.7,-0.6 -2.4,-0.7 -4.9,-1.3 -7.7,-2.1 0.5,1 0.7,1.6 1.1,2.1 1.9,2.6 3.9,5.2 5.8,7.8 1.7,2.5 4.3,2.7 7,3 z m 72.099994,-31.4 c 1.1,-0.6 1.8,-1.1 2.6,-1.4 2.7,-1.3 4.6,-3.10005 4.1,-6.40005 -0.1,-0.5 0.1,-1.1 0.1,-1.7 0,-1.6 0,-3.1 0,-5.1 -2.3,1.1 -4.2,2 -6.2,2.9 -0.2,3.9 -0.3,7.60005 -0.6,11.70005 z m 2,-34.20005 c -2,-4.5 -4.3,-8.5 -7.4,-12.4 -1.2,1 -2.3,1.8 -3.4,2.6 1.3,2.2 2.5,4.2 3.5,6.3 1,2.1 1.9,4.3 3,6.7 1.5,-1.2 2.8,-2.2 4.3,-3.2 z m -81.599994,41.50005 c 0.7,2.4 1.3,4.5 1.9,6.7 0.5,1.5 0.5,3.5 1.5,4.4 1.1,1 3.1,0.9 4.7,1.2 0.3,0.1 0.6,0 0.7,0 -1.2,-3.8 -2.4,-7.6 -3.7,-11.6 -1.4,-0.1 -3.1,-0.4 -5.1,-0.7 z m -0.6,-31.20005 c -0.7,4.8 -1,9.3 -1,14 1.8,0.2 3.4,0.4 5.3,0.6 -0.6,-4.9 -1.1,-9.4 -1.7,-14 -0.9,-0.2 -1.6,-0.3 -2.6,-0.6 z m 43.899999,57.20005 c 1.2,-0.1 2.2,-0.4 3.2,-0.3 2.8,0.3 4.3,-1.1 5.5,-3.5 1.3,-2.5 3,-4.7 3.8,-7.5 -1.5,-0.2 -2.7,0.1 -3.6,1.3 -1.8,2.4 -4,4.6 -6.7,6 -1.6,0.8 -2.2,2 -2.2,4 z M 18.803306,957.56015 c -3,3.7 -5.4,7.6 -7.4,12 0.9,0.9 1.7,1.7 2.4,2.5 2.1,-4.4 4.1,-8.6 6.1,-13 -0.2,-0.3 -0.6,-0.8 -1.1,-1.5 z m 38.3,89.70005 c -0.1,-2.5 -0.3,-4.9 -0.4,-7.4 -2.5,0 -4.6,0 -6.9,0 0.7,2.2 2.3,4.5 4,6.5 0.9,1 1.8,1.4 3.3,0.9 z m 1.9,0.1 c 1.399999,0.3 2.299999,0.1 2.899999,-0.8 1.5,-2 2.7,-4.2 3.7,-6.6 -2.4,0 -4.5,0 -6.599999,0 0,2.6 0,5 0,7.4 z m -3.1,-108.70005 c -3,2.6 -4.7,5.4 -6.3,8.7 2.4,0.2 4.4,0.3 6.5,0.4 0,-2.8 0,-5.2 0,-7.7 -0.1,-0.3 -0.1,-0.6 -0.2,-1.4 z m -15.9,100.20005 c 2.4,3.4 8.9,8 11.2,8 -1.1,-1.9 -2.2,-3.9 -3.4,-5.7 -0.5,-0.7 -1.2,-1.4 -2,-1.5 -1.8,-0.5 -3.7,-0.6 -5.8,-0.8 z m 18.3,-99.70005 c 0,3 0,5.7 0,8.4 2.199999,0.5 3.899999,-0.1 5.499999,-1.2 -0.9,-2.6 -2.9,-5.1 -5.499999,-7.2 z m 20.899999,105.90005 c 4.2,-0.7 13.499999,-6.8 15.699999,-10.4 -1.9,0.8 -3.8,1.1 -5.1,2.1 -3.599999,2.6 -6.999999,5.4 -10.599999,8.3 z M 21.303306,957.26015 c 2.5,-2.6 4.7,-5.2 7.2,-7.6 2.5,-2.3 5.2,-4.3 7.9,-6.4 -0.1,-0.1 -0.2,-0.2 -0.2,-0.2 -5.9,2.9 -10.9,6.9 -15.2,11.8 -0.8,0.9 -0.6,1.7 0.3,2.4 z m 42.899999,89.80005 c 2.5,-0.6 8.4,-5.6 9.4,-7.8 -1.4,0.1 -2.7,0 -4.1,0.2 -0.6,0.1 -1.3,0.4 -1.5,0.8 -1.3,2.2 -2.5,4.4 -3.8,6.8 z m 15.4,-90.40005 c -1.9,-2.8 -3.8,-5.4 -5.6,-8 -0.5,-0.8 -1.1,-1.1 -1.9,-0.5 0.6,2.4 1.1,4.7 1.7,6.9 1.9,0.5 3.7,1 5.8,1.6 z m -36.799999,-11.3 c 1.5,0.5 2.4,0.9 3.4,1.2 0.5,0.1 1.3,0 1.5,-0.3 1.3,-2 2.5,-4 4,-6.6 -3.5,1.6 -6.1,3.4 -8.9,5.7 z m 37.199999,-3.6 c -4.5,-2 -8.8,-3.1 -13.4,-3.6 3.5,1.7 7.1,3.2 10.7,4.7 1.1,0.6 1.8,-0.1 2.7,-1.1 z m -17.6,-1.4 c 1,1.3 2,2.7 3,4 1.5,2.2 2.9,2.6 5.8,1.5 -2.6,-2.4 -5.4,-4.4 -8.8,-5.5 z m -10.199999,43.4 c 0.4,3 0.8,5.8 1.1,8.6 0.2,0 0.3,0 0.5,0 0.8,-2.8 1,-5.6 1.3,-8.6 -1,0 -1.8,0 -2.9,0 z m -27.2,52.30005 c 4,3.5 7.9,6.3 12.4,8.1 -5.1,-4.6 -10,-7.8 -12.4,-8.1 z m 31.6,1.5 c -3.3,-0.9 -6.2,-1.7 -9.3,-2.6 0.4,0.9 0.7,1.7 1.1,2.6 2.7,0 5.3,0 8.2,0 z m -26.9,-73.50005 c -0.4,1.2 -0.7,2.2 -1.1,3.3 2,-0.7 3.8,-1.3 6,-2.1 -1.9,-0.4 -3.3,-0.8 -4.9,-1.2 z m 37.399999,71.60005 c -1.4,0.3 -2.7,0.7 -4.1,0.9 -1.3,0.3 -2.6,0.4 -3.999999,0.7 2.299999,0.3 4.599999,0.3 6.899999,0.3 1.1,0 1.4,-0.7 1.2,-1.9 z M 27.403306,973.16015 c -0.2,0 -0.3,0 -0.5,0 -0.4,1.6 -0.7,3.2 -1.1,4.9 0.7,0.2 1.3,0.3 2.1,0.5 -0.2,-2 -0.3,-3.7 -0.5,-5.4 z m 43.399999,-30.8 c 1.9,2.8 2.8,3.2 4.8,2.1 -1.5,-1 -2.9,-1.9 -4.8,-2.1 z m 10.4,81.50005 c 2.3,-0.3 2.9,-1.4 3,-4.7 -1.1,1.6 -2,3.1 -3,4.7 z M 58.703306,955.16015 c 0.4,-2.1 0.6,-3.8 0.999999,-5.8 -1.399999,1.2 -1.399999,1.6 -0.999999,5.8 z m 18.699999,46.10005 c 0.7,-1.1 1.2,-1.90005 2,-3.00005 -2.2,0.3 -2.2,0.3 -2,3.00005 z m 5.7,-38.20005 c -0.5,-1 -0.8,-1.5 -1.1,-2.1 -0.2,0.8 -0.9,1.8 1.1,2.1 z m -4.6,82.10005 c -0.1,0 -0.1,0.1 -0.2,0.1 l 0.1,0.1 c 0,0 0.1,-0.1 0.1,-0.2 0.1,0.1 0,0.1 0,0 z"
       id="path4024"
       style="fill:#0d0c07" />
    <path
       d="m 71.103305,1017.0602 c 2.8,-2.2 4.8,-4.5 6.6,-7.1 1.8,-2.6 3.5,-5.4 5.3,-8 1.5,-2.20005 3.1,-4.30005 4.7,-6.40005 0.899999,-1.2 1.799999,-1.4 2.899999,-0.8 1.1,0.7 1.4,1.8 0.7,3.1 -1.2,2.1 -2.4,4.10005 -3.699999,6.20005 -3.8,5.9 -7.6,11.8 -11.3,17.8 -4.6,7.3 -11.2,10.7 -19.599999,10 -8.4,-0.7 -14,-5.7 -17.6,-13.1 -1.5,-3 -1.9,-6.2 -2.3,-9.5 -1.1,-9.60005 -2.3,-19.20005 -3.3,-28.80005 -0.3,-3 -0.5,-6 -0.8,-9.2 0.6,-0.2 1,-0.4 1.4,-0.5 1.5,-0.3 1.9,-0.1 2.1,1.4 0.7,3.7 1.3,7.4 1.8,11.1 0.5,3.2 0.9,6.3 1.2,9.5 0.2,1.9 1,3 2.8,3.3 0.5,0.1 1,0.3 1.8,0.6 0.4,-1.6 0.5,-3 0.3,-4.5 -0.7,-5.5 -1.4,-10.9 -2,-16.4 -0.5,-5 -0.9,-10 -1.4,-15 0,-0.5 0.1,-0.9 0.1,-1.6 1,0.1 1.8,0.1 2.9,0.1 0.5,3.3 1.1,6.4 1.5,9.5 1.1,8.1 2.2,16.1 3.4,24.2 0.3,2.5 1.5,4.3 4.1,5.1 2.6,0.8 4.9,-0.1 5.8,-2.7 0.6,-1.6 0.899999,-3.4 1.099999,-5.1 1.3,-10.2 2.6,-20.5 3.9,-30.7 0.3,-2.5 0.8,-5 1.3,-7.8 0.9,-0.1 1.8,-0.3 2.9,-0.4 0,2.8 0.2,5.4 0,8 -1.3,11.4 -2.7,22.7 -4,34 -0.2,1.6 -0.2,3.1 -0.2,4.8 4.5,-0.8 4.6,-0.8 5.2,-5 0.8,-5.6 1.4,-11.3 2.1,-16.9 0.6,-4.4 1.1,-8.7 1.8,-13.1 0.4,-2.7 0.5,-2.7 3.5,-2.6 0.6,1.8 0.5,3.7 0.3,5.6 -0.3,3.5 -0.7,7 -1.1,10.5 -1.3,11.6 -2.7,23.2 -4,34.80005 -0.4,1.8 -0.2,3.5 -0.2,5.6 z"
       id="path4050"
       style="fill:#f2d13b" />
    <path
       d="m 89.803304,980.66015 c 4.1,-1.4 8.099996,-2.8 12.299996,-4.2 1.4,4.8 1.7,9.7 2.2,14.7 -2.7,0.8 -5.2,1.5 -7.799996,2.3 -1.7,-2.3 -3.7,-3.9 -6.7,-4.2 0,-3 0,-5.7 0,-8.6 z"
       id="path4052"
       style="fill:#f2d13b" />
    <path
       d="m 101.4033,974.06015 c -3.9,2 -7.799996,3.2 -11.999996,4.3 -1.1,-4.6 -2.299999,-9.3 -3.399999,-14 2.899999,-1 5.799999,-2.1 8.999999,-3.2 2.699996,3.8 4.799996,8.1 6.399996,12.9 z"
       id="path4054"
       style="fill:#f2d13b" />
    <path
       d="m 85.803305,1022.8602 c 0.8,-3.3 1.6,-6.6 2.499999,-9.9 0.2,-0.6 0.8,-1.3 1.3,-1.4 4.3,-1.2 8.599996,-2.2 13.199996,-3.4 -0.2,1.1 -0.4,2.1 -0.7,3 -0.8,2.4 -1.6,4.9 -2.5,7.2 -0.3,0.7 -0.9,1.5 -1.5,1.7 -3.899996,1.1 -7.899996,2 -11.799995,3 -0.1,0 -0.2,-0.1 -0.5,-0.2 z"
       id="path4056"
       style="fill:#f1d03a" />
    <path
       d="m 15.303306,975.86015 c 2.8,1.3 5.4,2.4 8.1,3.7 -0.3,4.6 -0.6,9.2 -1,14.1 -3.3,-0.7 -6.3,-1.8 -9.3,-3 0.5,-4.9 0.9,-9.8 2.2,-14.8 z"
       id="path4058"
       style="fill:#f1d03a" />
    <path
       d="m 12.803306,992.96015 c 3.6,1.1 6.6,2 9.7,3 0.3,4.20005 0.6,8.30005 0.9,12.70005 -3,-1 -5.7,-1.9 -8.5,-2.9 -0.5,-0.2 -1,-0.9 -1.1,-1.4 -0.3,-3.6 -0.6,-7.30005 -1,-11.40005 z"
       id="path4060"
       style="fill:#f1d03a" />
    <path
       d="m 46.503306,955.06015 c 0.7,-1.9 1.4,-3.7 2.1,-5.6 1.3,0.1 2.6,0.1 3.8,0.2 1.2,0.1 2.4,0.3 3.6,0.4 0,5 0,9.9 0,14.9 -2.1,0 -4.1,0 -6.3,0 -0.3,-1.9 -0.7,-3.6 -0.8,-5.4 -0.1,-1.9 -1,-3.3 -2.4,-4.5 z"
       id="path4062"
       style="fill:#f4d23b" />
    <path
       d="m 79.603305,1035.9602 c 1,-2.1 2.3,-4.2 3,-6.4 1.1,-3.3 3.2,-4.8 6.499999,-5.2 1.9,-0.2 3.7,-0.8 5.6,-1.2 0.8,-0.2 1.5,-0.3 2.899996,-0.5 -0.799996,1.4 -1.299996,2.4 -1.999996,3.3 -1.9,2.5 -3.9,5 -5.9,7.5 -0.3,0.4 -0.8,0.9 -1.3,1 -2.799999,0.6 -5.799999,1 -8.799999,1.5 l 0,0 z"
       id="path4064"
       style="fill:#efce3a" />
    <path
       d="m 93.803304,959.46015 c -3.1,1 -5.899999,1.9 -8.599999,2.8 -1.5,-2.9 -2.8,-5.6 -4.3,-8 -1.5,-2.5 -3.4,-4.8 -5.1,-7.3 0.8,-0.4 1.6,-0.7 2.4,-1.1 5.9,3.4 10.999999,7.7 15.599999,13.6 z"
       id="path4066"
       style="fill:#efce3a" />
    <path
       d="m 91.103304,1008.5602 c 0.8,-1.4 1.7,-2.9 2.5,-4.3 1.5,-2.8 3.3,-5.50005 3.499996,-9.00005 2.3,-0.6 4.6,-1.2 7.1,-1.9 0.4,4.1 -0.2,7.90005 -0.7,12.00005 -3.9,1.6 -7.899996,2.8 -12.099996,3.6 -0.1,-0.2 -0.2,-0.3 -0.3,-0.4 z"
       id="path4068"
       style="fill:#efce3a" />
    <path
       d="m 15.903306,973.86015 c 1.4,-4.9 3.3,-9.1 6,-13.2 1.8,0.9 3.6,1.7 5.6,2.7 -1.2,4.6 -2.5,9.2 -3.8,14.1 -2.6,-1.2 -5.1,-2.4 -7.8,-3.6 z"
       id="path4070"
       style="fill:#efce3a" />
    <path
       d="m 77.803305,995.86015 c 0.6,-4.6 1.2,-9 1.8,-13.6 2.6,-0.4 5.1,-0.8 7.9,-1.2 0.1,2.8 0.2,5.3 0.4,8 -2.8,0.6 -4.2,2.8 -5.6,4.9 -1.5,2.1 -1.6,2.1 -4.5,1.9 z"
       id="path4072"
       style="fill:#efce3a" />
    <path
       d="m 14.203306,1007.9602 c 3.3,1 6,1.8 8.8,2.7 0.4,0.1 0.9,0.7 1,1.1 1,3.4 1.8,6.9 2.8,10.6 -2.8,-0.4 -5.4,-1.4 -7.9,-2.3 -0.5,-0.2 -0.9,-0.9 -1.1,-1.4 -1.2,-3.4 -2.3,-6.8 -3.6,-10.7 z"
       id="path4074"
       style="fill:#efce3a" />
    <path
       d="m 106.6033,990.26015 c -0.8,-5.2 -1.6,-9.9 -2.4,-15.1 1.2,-0.9 2.6,-2 4.4,-3.3 0.8,2.4 1.6,4.6 2.1,6.7 0.6,2.2 0.9,4.5 1.4,6.8 0.2,1.2 0,2 -1.1,2.6 -1.4,0.7 -2.8,1.4 -4.4,2.3 z"
       id="path4076"
       style="fill:#efce3a" />
    <path
       d="m 45.903306,1037.4602 c -2.6,-0.3 -5.2,-0.6 -7.8,-1 -0.5,-0.1 -1,-0.5 -1.3,-0.9 -2.4,-3 -4.4,-6.2 -6.1,-10 2.1,0.3 4,0.4 5.8,0.7 0.6,0.1 1.2,0.7 1.7,1.2 1.5,1.4 2.7,3 4.3,4.1 2.1,1.3 3.1,3.2 3.4,5.9 z"
       id="path4078"
       style="fill:#eccc3a" />
    <path
       d="m 46.403306,949.06015 c -0.6,1.6 -1.2,3.2 -1.8,4.9 -0.9,0 -1.7,-0.1 -2.5,-0.1 -4.1,0 -6.6,2.2 -6.8,6.3 -0.1,0.9 -0.2,1.9 -0.3,3.1 -1.5,-0.4 -2.9,-0.7 -4.5,-1 1.8,-4.2 3.9,-7.9 6.7,-11.2 4.4,-5 2.6,-4.4 8.8,-2.2 0.2,0 0.2,0 0.4,0.2 z"
       id="path4080"
       style="fill:#eccc3a" />
    <path
       d="m 52.003306,981.56015 c -0.7,-5 -1.3,-9.7 -1.9,-14.5 2.1,0 4.1,0 6.2,0 0.6,4.9 -0.1,9.6 -0.8,14.5 -1.2,0 -2.2,0 -3.5,0 z"
       id="path4082"
       style="fill:#e6c739" />
    <path
       d="m 80.203305,944.56015 c 0.8,-0.7 1.4,-1.2 2,-1.8 6.499999,3.3 12.099999,7.5 16.899995,13.2 -1.2,0.8 -2.299996,1.6 -3.499996,2.5 -4.3,-5.6 -9.399999,-10.1 -15.399999,-13.9 z"
       id="path4084"
       style="fill:#eccc3a" />
    <path
       d="m 28.303306,961.46015 c -1.7,-0.8 -3.3,-1.6 -5.1,-2.5 0.5,-0.8 0.8,-1.3 1.2,-1.8 3.4,-4.5 7.6,-8.2 12.3,-11.3 0.6,-0.4 1.4,-1.3 2.2,-0.1 -1.9,2.5 -4,4.8 -5.7,7.3 -1.8,2.6 -3.2,5.4 -4.9,8.4 z"
       id="path4086"
       style="fill:#eccc3a" />
    <path
       d="m 83.703305,964.86015 c 1.7,4.6 2.8,9.1 3.4,14.1 -2.4,0.4 -4.6,0.7 -7.1,1.2 0.5,-5.2 1,-10 1.5,-15 0.7,-0.1 1.4,-0.2 2.2,-0.3 z"
       id="path4088"
       style="fill:#eccc3a" />
    <path
       d="m 24.603306,996.46015 c 1.9,0.3 3.6,0.5 5.4,0.7 0.5,4.30005 1,8.40005 1.5,12.90005 -1.8,-0.3 -3.4,-0.6 -4.9,-0.9 -0.9,-0.2 -1.1,-0.8 -1.2,-1.6 -0.2,-3.5 -0.5,-7.1 -0.8,-11.10005 z"
       id="path4090"
       style="fill:#eccc3a" />
    <path
       d="m 33.703306,1035.5602 c -2.7,-0.3 -5.3,-0.5 -7,-2.9 -1.9,-2.6 -3.9,-5.2 -5.8,-7.8 -0.4,-0.5 -0.6,-1.1 -1.1,-2.1 2.9,0.8 5.3,1.4 7.7,2.1 0.3,0.1 0.6,0.3 0.7,0.6 1.8,3.2 3.6,6.6 5.5,10.1 z"
       id="path4092"
       style="fill:#eccc3a" />
    <path
       d="m 105.8033,1004.1602 c 0.2,-4.20005 0.4,-7.90005 0.6,-11.60005 2,-0.9 3.9,-1.8 6.2,-2.9 0,1.9 0,3.5 0,5.1 0,0.6 -0.2,1.1 -0.1,1.7 0.5,3.4 -1.4,5.10005 -4.1,6.40005 -0.7,0.3 -1.4,0.7 -2.6,1.3 z"
       id="path4094"
       style="fill:#eccc3a" />
    <path
       d="m 107.8033,969.96015 c -1.4,1.1 -2.8,2 -4.3,3.2 -1,-2.4 -1.9,-4.6 -3,-6.7 -1,-2.1 -2.2,-4.1 -3.5,-6.3 1,-0.8 2.1,-1.6 3.4,-2.6 3.1,3.8 5.4,7.9 7.4,12.4 z"
       id="path4096"
       style="fill:#eccc3a" />
    <path
       d="m 10.103306,972.36015 c 2.4,0.7 3.3,2.1 2.9,4.4 -0.7,4.2 -1.4,8.5 -2.2,13 -1.5,-1.2 -3.6,-1.4 -4.1000002,-3.6 1.2000002,-4.7 2.3000002,-9.2 3.4000002,-13.8 z"
       id="path4098"
       style="fill:#eccc3a" />
    <path
       d="m 109.3033,1013.3602 c -0.7,0.7 -1.3,1.6 -2.1,2.1 -1.5,1 -3.1,1.9 -5,3 1,-3.9 1.9,-7.3 2.9,-10.7 0.2,-0.6 0.8,-1.1 1.4,-1.4 1.6,-0.9 3.2,-1.7 4.8,-2.6 -0.1,0.9 0,1.9 -0.2,2.8 -0.6,2.2 -1.2,4.5 -1.8,6.8 z"
       id="path4100"
       style="fill:#eccc3a" />
    <path
       d="m 26.203306,1011.4602 c 2,0.3 3.7,0.5 5.2,0.7 1.3,4 2.5,7.8 3.7,11.6 -0.1,0 -0.4,0.1 -0.7,0 -1.6,-0.4 -3.6,-0.3 -4.7,-1.2 -1,-0.9 -1.1,-2.9 -1.5,-4.4 -0.6,-2.1 -1.3,-4.2 -2,-6.7 z"
       id="path4102"
       style="fill:#eccc3a" />
    <path
       d="m 25.603306,980.26015 c 1,0.3 1.7,0.4 2.6,0.6 0.6,4.6 1.1,9.1 1.7,14 -1.8,-0.2 -3.4,-0.4 -5.3,-0.6 0,-4.7 0.3,-9.2 1,-14 z"
       id="path4104"
       style="fill:#eccc3a" />
    <path
       d="m 69.503305,1037.4602 c 0,-2 0.6,-3.1 2.2,-4 2.7,-1.5 4.9,-3.6 6.7,-6 0.9,-1.2 2.1,-1.5 3.6,-1.3 -0.9,2.8 -2.6,5 -3.8,7.5 -1.2,2.4 -2.7,3.8 -5.5,3.5 -1,-0.2 -2.1,0.1 -3.2,0.3 z"
       id="path4106"
       style="fill:#eccc3a" />
    <path
       d="m 106.5033,1019.1602 c -1.6,4.1 -4,7.6 -6.8,10.8 -1.4,1.6 -3.599996,2 -5.899996,2.8 2.3,-3.7 4.399996,-7.1 6.499996,-10.4 0.2,-0.3 0.3,-0.6 0.6,-0.7 1.8,-0.9 3.7,-1.6 5.6,-2.5 l 0,0 z"
       id="path4108"
       style="fill:#e6c739" />
    <path
       d="m 6.7033058,989.86015 c 0.1,0 0.2,0 0.2,0 4.1000002,2.1 4.0000002,2.1 4.2000002,6.6 0.1,2.4 0.3,4.80005 0.4,7.20005 -2.3,-0.5 -3.9,-1.7 -4.8000002,-3.70005 0,-3.3 0,-6.7 0,-10.1 z"
       id="path4110"
       style="fill:#efce3a" />
    <path
       d="m 7.803306,1004.4602 c 3.4,1.3 4.9,3.8 5.4,7.3 0.3,2.1 1.2,4.1 1.9,6.5 -2,-1 -3.9,-1.4 -4.7,-3.4 -0.6,-1.9 -1.2,-3.7 -1.7,-5.6 -0.4,-1.6 -0.6,-3.2 -0.9,-4.8 z"
       id="path4112"
       style="fill:#e6c739" />
    <path
       d="m 18.803306,957.56015 c 0.5,0.7 0.9,1.2 1.2,1.5 -2.1,4.4 -4,8.6 -6.1,13 -0.8,-0.8 -1.6,-1.7 -2.4,-2.5 1.9,-4.4 4.3,-8.3 7.3,-12 z"
       id="path4114"
       style="fill:#e6c739" />
    <path
       d="m 57.103306,1047.2602 c -1.5,0.5 -2.4,0.1 -3.3,-0.9 -1.8,-2 -3.3,-4.3 -4,-6.5 2.2,0 4.4,0 6.9,0 0.2,2.5 0.3,4.9 0.4,7.4 z"
       id="path4116"
       style="fill:#eccc3a" />
    <path
       d="m 70.403305,1045.9602 c 2,-2.1 4.1,-4.3 6.2,-6.3 0.6,-0.6 1.5,-1 2.3,-1.1 2,-0.4 4.1,-0.7 6.1,-1 -1.4,2.3 -9,7 -14.2,8.9 -0.2,-0.2 -0.3,-0.4 -0.4,-0.5 z"
       id="path4118"
       style="fill:#e6c739" />
    <path
       d="m 59.003306,1047.3602 c 0,-2.5 0,-4.8 0,-7.4 2.099999,0 4.199999,0 6.599999,0 -1,2.4 -2.2,4.6 -3.7,6.6 -0.6,0.9 -1.5,1.2 -2.899999,0.8 z"
       id="path4120"
       style="fill:#eccc3a" />
    <path
       d="m 55.903306,938.66015 c 0.1,0.9 0.1,1.2 0.1,1.4 0,2.5 0,4.9 0,7.7 -2,-0.1 -4.1,-0.3 -6.5,-0.4 1.7,-3.4 3.4,-6.2 6.4,-8.7 z"
       id="path4122"
       style="fill:#eccc3a" />
    <path
       d="m 40.003306,1038.8602 c 2,0.2 3.9,0.3 5.8,0.7 0.8,0.2 1.5,0.9 2,1.5 1.2,1.8 2.3,3.8 3.4,5.7 -2.2,0.1 -8.8,-4.5 -11.2,-7.9 z"
       id="path4124"
       style="fill:#e6c739" />
    <path
       d="m 12.903306,1019.6602 c 2.4,0.9 4.1,2.3 5.3,4.7 1.4,2.8 3.4,5.4 5.2,8.1 -2.2,0 -3.3,-1.6 -4.6,-2.9 -0.4,-0.7 -0.9,-1.3 -1.3,-2 -1.5,-2.5 -3,-5.2 -4.6,-7.9 z"
       id="path4126"
       style="fill:#e6c739" />
    <path
       d="m 58.303306,939.16015 c 2.699999,2.1 4.599999,4.6 5.499999,7.2 -1.6,1.1 -3.3,1.7 -5.499999,1.2 0,-2.7 0,-5.4 0,-8.4 z"
       id="path4128"
       style="fill:#eccc3a" />
    <path
       d="m 79.203305,1045.0602 c 3.6,-2.9 7,-5.7 10.599999,-8.3 1.4,-1 3.2,-1.3 5.1,-2.1 -2.2,3.6 -11.599999,9.7 -15.699999,10.4 z"
       id="path4130"
       style="fill:#dbbe38" />
    <path
       d="m 21.303306,957.26015 c -0.9,-0.7 -1.1,-1.5 -0.4,-2.3 4.3,-4.9 9.3,-9 15.2,-11.8 0,0 0.1,0.1 0.2,0.2 -2.6,2.1 -5.4,4.1 -7.9,6.4 -2.4,2.3 -4.6,4.9 -7.1,7.5 z"
       id="path4132"
       style="fill:#dbbe38" />
    <path
       d="m 64.203305,1047.0602 c 1.3,-2.4 2.5,-4.6 3.8,-6.7 0.3,-0.4 1,-0.8 1.5,-0.8 1.3,-0.2 2.7,-0.2 4.1,-0.2 -1,2.1 -6.9,7 -9.4,7.7 z"
       id="path4134"
       style="fill:#e6c739" />
    <path
       d="m 79.603305,956.66015 c -2.1,-0.6 -3.9,-1.1 -5.8,-1.6 -0.5,-2.2 -1.1,-4.5 -1.7,-6.9 0.7,-0.6 1.3,-0.2 1.9,0.5 1.8,2.6 3.6,5.2 5.6,8 z"
       id="path4136"
       style="fill:#e6c739" />
    <path
       d="m 10.103306,972.36015 c -1.1,4.6 -2.3,9.2 -3.4000002,13.7 -1.3,-0.1 -1.6,-0.9 -1.4,-2 1.1,-4.4 2.1000002,-8.9 4.1000002,-13.4 0.3,0.8 0.5,1.2 0.7,1.7 z"
       id="path4138"
       style="fill:#322c1f" />
    <path
       d="m 42.803306,945.36015 c 2.8,-2.3 5.4,-4.1 8.9,-5.7 -1.5,2.5 -2.7,4.6 -4,6.6 -0.2,0.3 -1,0.4 -1.5,0.3 -1,-0.2 -1.9,-0.7 -3.4,-1.2 z"
       id="path4140"
       style="fill:#e6c739" />
    <path
       d="m 80.003305,941.76015 c -0.9,1 -1.6,1.6 -2.7,1.1 -3.6,-1.5 -7.2,-3 -10.7,-4.7 4.6,0.5 8.9,1.6 13.4,3.6 z"
       id="path4142"
       style="fill:#dbbe38" />
    <path
       d="m 62.403305,940.36015 c 3.4,1.1 6.2,3 8.8,5.5 -2.9,1.1 -4.3,0.7 -5.8,-1.5 -1,-1.3 -2,-2.6 -3,-4 z"
       id="path4144"
       style="fill:#e6c739" />
    <path
       d="m 7.803306,1004.4602 c 0.3,1.6 0.5,3.2 0.9,4.8 0.5,1.9 1.1,3.8 1.7,5.6 -1.4,-0.2 -1.8,-1.4 -2.3,-2.5 -1.3000002,-2.9 -2.5000002,-5.8 -2.8000002,-9.3 0.9,0.5 1.7000002,1 2.5000002,1.4 z"
       id="path4146"
       style="fill:#322c1f" />
    <path
       d="m 6.7033058,989.86015 c 0,3.4 0,6.7 0,10.1 -1.1,-0.2 -1.8,-0.8 -1.9,-1.8 -0.1,-3 0,-6 0,-9.4 0.9,0.5 1.4,0.8 1.9,1.1 z"
       id="path4148"
       style="fill:#322c1f" />
    <path
       d="m 12.903306,1019.6602 c 1.5,2.7 3.1,5.3 4.6,8 0.4,0.7 0.9,1.3 1.3,2 -0.6,-0.2 -1.3,-0.3 -1.7,-0.7 -3.1,-2.8 -5.3,-6.3 -6.7,-10.3 0.9,0.4 1.7,0.7 2.5,1 z"
       id="path4150"
       style="fill:#322c1f" />
    <path
       d="m 52.203306,983.76015 c 1.1,0 1.9,0 2.9,0 -0.3,3 -0.5,5.8 -1.3,8.6 -0.2,0 -0.3,0 -0.5,0 -0.3,-2.8 -0.7,-5.5 -1.1,-8.6 z"
       id="path4152"
       style="fill:#dbbe38" />
    <path
       d="m 25.003306,1036.0602 c 2.4,0.3 7.3,3.6 12.4,8.1 -4.5,-1.8 -8.3,-4.6 -12.4,-8.1 z"
       id="path4154"
       style="fill:#c5ab36" />
    <path
       d="m 109.3033,1013.3602 c 0.6,-2.3 1.2,-4.6 1.8,-6.9 0.2,-0.9 0.2,-1.8 0.2,-2.8 0.5,-0.3 1,-0.5 2,-1 -0.2,1.4 -0.3,2.4 -0.6,3.4 -0.5,2.1 -1.2,4.1 -1.7,6.1 -0.3,1 -0.7,1.4 -1.7,1.2 z"
       id="path4156"
       style="fill:#322c1f" />
    <path
       d="m 40.503306,1043.4602 c -2.9,-1.4 -5.5,-3.3 -8.4,-5.6 2.6,0 4.4,0.4 5.7,2.1 0.9,1.1 2,2.1 2.9,3.1 0,0.2 -0.1,0.3 -0.2,0.4 z"
       id="path4158"
       style="fill:#dbbe38" />
    <path
       d="m 56.603306,1037.5602 c -3,0 -5.5,0 -8.2,0 -0.4,-0.9 -0.7,-1.7 -1.1,-2.6 3.2,0.9 6.1,1.7 9.3,2.6 z"
       id="path4160"
       style="fill:#dbbe38" />
    <path
       d="m 29.703306,964.06015 c 1.6,0.4 3,0.8 4.9,1.3 -2.2,0.8 -4,1.4 -6,2.1 0.4,-1.2 0.7,-2.2 1.1,-3.4 z"
       id="path4162"
       style="fill:#dbbe38" />
    <path
       d="m 67.103305,1035.6602 c 0.2,1.2 -0.1,1.9 -1.2,1.9 -2.3,0 -4.5,0 -6.899999,-0.3 1.299999,-0.2 2.699999,-0.4 3.999999,-0.7 1.4,-0.2 2.7,-0.5 4.1,-0.9 z"
       id="path4164"
       style="fill:#c5ab36" />
    <path
       d="m 27.403306,973.16015 c 0.2,1.7 0.3,3.4 0.5,5.3 -0.8,-0.2 -1.3,-0.3 -2.1,-0.5 0.4,-1.7 0.7,-3.3 1.1,-4.9 0.2,0.1 0.4,0.1 0.5,0.1 z"
       id="path4166"
       style="fill:#c5ab36" />
    <path
       d="m 70.803305,942.36015 c 1.9,0.2 3.3,1.2 4.8,2.1 -2.1,1.1 -2.9,0.7 -4.8,-2.1 z"
       id="path4168"
       style="fill:#c5ab36" />
    <path
       d="m 81.203305,1023.8602 c 1,-1.6 1.9,-3 3,-4.7 -0.1,3.3 -0.7,4.3 -3,4.7 z"
       id="path4170"
       style="fill:#c5ab36" />
    <path
       d="m 58.703306,955.16015 c -0.4,-4.3 -0.4,-4.6 0.999999,-5.8 -0.3,2.1 -0.599999,3.7 -0.999999,5.8 z"
       id="path4172"
       style="fill:#c5ab36" />
    <path
       d="m 77.403305,1001.2602 c -0.2,-2.70005 -0.2,-2.70005 2,-3.00005 -0.7,1 -1.3,1.90005 -2,3.00005 z"
       id="path4174"
       style="fill:#c5ab36" />
    <path
       d="m 83.103305,963.06015 c -2,-0.3 -1.2,-1.3 -1.1,-2.1 0.2,0.6 0.5,1.1 1.1,2.1 z"
       id="path4176"
       style="fill:#c5ab36" />
    <path
       d="m 41.703306,943.36015 c -0.3,0.3 -0.7,0.6 -1,0.9 -0.1,-0.9 0.3,-1.1 1,-0.9 l 0,0 z"
       id="path4178"
       style="fill:#c5ab36" />
    <path
       d="m 70.103305,941.86015 c -0.2,0 -0.3,-0.1 -0.5,-0.1 0.1,0.1 0.3,0.1 0.5,0.1 -0.1,0.1 0,0 0,0 z"
       id="path4180"
       style="fill:#c5ab36" />
    <path
       d="m 70.803305,1046.3602 c -0.2,0 -0.5,0 -0.7,0 0.1,-0.1 0.3,-0.3 0.4,-0.4 0,0.1 0.1,0.3 0.3,0.4 z"
       id="path4182"
       style="fill:#e6c739" />
    <path
       d="m 78.503305,1045.1602 0,0 c 0,0.1 0,0.2 -0.1,0.2 l -0.1,-0.1 c 0.1,0 0.1,0 0.2,-0.1 z"
       id="path4184"
       style="fill:#dbbe38" />
    <path
       d="m 40.903306,1043.0602 c 0.1,0.1 0.3,0.3 0.4,0.4 -0.2,0 -0.5,0 -0.7,0 0,-0.1 0.1,-0.2 0.3,-0.4 z"
       id="path4186"
       style="fill:#dbbe38" />
    <path
       d="m 70.003305,941.96015 c 0.2,0.1 0.3,0.2 0.5,0.3 -0.1,0 -0.1,0.1 -0.2,0.1 -0.1,-0.2 -0.1,-0.3 -0.3,-0.4 0.1,-0.1 0,0 0,0 z"
       id="path4188"
       style="fill:#c5ab36" />
    <path
       d="m 10.403306,1018.6602 0,0 c 0,-0.1 0,-0.1 0,0 0.1,0 0.1,0 0.2,0.1 -0.1,-0.1 -0.2,-0.1 -0.2,-0.1 z"
       id="path4190"
       style="fill:#322c1f" />
    <path
       d="m 106.6033,1019.1602 c 0,-0.1 0,-0.2 0,-0.3 l 0.1,0.1 c -0.1,0.1 -0.1,0.2 -0.1,0.2 -0.1,0 0,0 0,0 z"
       id="path4192"
       style="fill:#e6c739" />
    <path
       d="m 41.703306,943.36015 c 0,-0.1 0.1,-0.2 0.1,-0.4 0.1,0 0.2,0.1 0.3,0.1 -0.1,0.1 -0.3,0.2 -0.4,0.3 l 0,0 z"
       id="path4194"
       style="fill:#c5ab36" />
    <path
       d="m 79.603305,1035.9602 c 0,0.1 0,0.1 0,0.2 -0.1,-0.1 -0.1,-0.1 -0.2,-0.2 0.1,0 0.2,0 0.2,0 l 0,0 z"
       id="path4196"
       style="fill:#efce3a" />
    <path
       d="m 91.403304,1008.8602 c -0.2,0 -0.4,0 -0.5,0 0.1,-0.1 0.2,-0.2 0.2,-0.3 0.1,0.1 0.2,0.2 0.3,0.3 z"
       id="path4198"
       style="fill:#efce3a" />
  </g>
</svg>
